<svg width="60" height="60" viewBox="0 0 60 60" fill="none" xmlns="http://www.w3.org/2000/svg">
<path d="M43.0825 7.5151C42.9105 7.57233 42.7959 7.57233 42.624 7.62955C42.3947 7.68677 42.1082 7.80121 41.8216 7.91566L41.707 7.97288L41.8216 8.08732C42.0509 8.31621 42.2801 8.5451 42.5094 8.65955C43.7702 9.46066 45.031 9.86121 46.4064 9.74677C47.0368 9.68955 47.7245 9.68955 48.4122 9.68955C48.9853 9.68955 49.6157 9.68955 50.2461 9.74677C50.6473 9.74677 51.0485 9.86121 51.4496 9.97566C51.6215 10.0329 51.7935 10.0329 51.9654 10.0901C51.9654 10.0901 51.9654 10.0901 52.0227 10.0901C51.5069 8.60232 49.9596 7.34344 48.5841 7.17177C47.6099 7.05733 46.5783 7.05733 45.1456 7.17177C44.4006 7.17177 43.7129 7.34344 43.0825 7.5151Z" fill="#C19F56"/>
<path d="M11.3915 49.4661C12.3084 49.4661 13.2254 49.4089 14.085 49.2944C13.6838 48.6077 13.1107 48.0927 12.3084 47.5205C11.2768 46.8339 10.0733 46.6622 8.81254 46.4333H8.69792C7.9529 46.3189 7.09326 46.2044 6.29093 45.9183C5.83246 45.8039 5.37398 45.575 4.97281 45.3461C4.80089 45.2316 4.62896 45.1744 4.45703 45.1172C4.74358 46.09 5.20205 47.1772 6.119 47.9783C6.92133 48.7222 7.9529 48.9511 8.98447 49.18C9.67218 49.4089 10.4745 49.4661 11.3915 49.4661Z" fill="#C19F56"/>
<path d="M17.9223 52.1614C18.0369 52.1614 18.0943 52.1041 18.2089 52.1041C18.0369 51.9325 17.9223 51.7608 17.7504 51.6464C16.4323 50.6164 15.0569 50.2158 13.4522 50.273C12.306 50.3302 11.0452 50.3302 9.7844 50.273C9.38324 50.273 8.92476 50.1586 8.5236 50.0441C8.35167 49.9869 8.17974 49.9869 8.00781 49.9297C8.58091 51.4747 10.0709 52.7336 11.6756 52.9052C13.4522 53.0769 15.1142 52.9625 16.7188 52.4475C17.0627 52.333 17.4639 52.2186 17.9223 52.1614Z" fill="#C19F56"/>
<path d="M27.4966 54.8454C27.2101 54.731 26.9236 54.5593 26.6943 54.5593C25.7774 54.3876 24.8604 54.3304 23.9435 54.5021C23.5996 54.5593 23.2558 54.731 22.9119 54.8454C22.7973 54.9026 22.74 54.9026 22.6254 54.9599C22.2815 55.1315 21.8803 55.3032 21.5365 55.4176C20.8488 55.7038 20.1611 56.0471 19.4733 56.276C18.9576 56.4476 18.4418 56.5621 17.926 56.6765C17.6968 56.7338 17.4675 56.7338 17.2956 56.791C17.2956 56.791 17.2956 56.791 17.2383 56.791C17.8687 57.3632 18.4991 57.7638 19.2441 58.0499C20.1611 58.3932 21.078 58.3932 22.0523 58.0499C23.3704 57.5921 24.6312 56.9626 25.7774 56.1043C26.1785 55.8182 26.5797 55.4749 27.0382 55.1888L27.4966 54.8454Z" fill="#C19F56"/>
<path d="M7.77932 17.9371L7.89394 18.2805C8.2951 17.9371 8.63896 17.4793 8.9255 16.9642C9.4986 15.7624 9.78515 14.6751 9.72784 13.5305C9.67053 12.2142 9.67053 10.9552 9.72784 9.92507C9.72784 9.52447 9.84245 9.12387 9.89976 8.72327C9.95707 8.55158 9.95707 8.37989 10.0144 8.26544C10.0144 8.20821 10.0144 8.15098 10.0717 8.09375C8.06587 9.00941 7.09161 10.4974 7.0343 12.5576C6.97699 13.9883 7.14892 15.3046 7.49277 16.5636C7.55008 16.9642 7.6647 17.422 7.77932 17.9371Z" fill="#C19F56"/>
<path d="M4.10993 26.3443C4.33917 26.6877 4.62572 27.031 4.91226 27.3744L5.08419 27.6033C5.42805 26.9738 5.54267 26.4015 5.54267 25.8865C5.65728 24.7419 5.42805 23.5973 4.91226 22.5672C4.39648 21.4798 3.938 20.4497 3.59415 19.4768C3.42222 19.019 3.3076 18.504 3.25029 18.0461C3.19298 17.8172 3.19298 17.6455 3.13567 17.4166C3.13567 17.4166 3.13567 17.4166 3.13567 17.3594C2.44796 18.0461 1.98949 18.9046 1.70294 19.9347C1.4737 20.8503 1.70294 21.7088 1.98949 22.5672C2.44796 24.0551 3.36491 25.3714 4.10993 26.3443Z" fill="#C19F56"/>
<path d="M58.1537 25.6609C56.9502 24.459 55.5174 23.6006 53.9128 22.7422C53.9128 22.7994 53.9128 22.8566 53.9128 22.9139C53.9128 23.2572 53.8555 23.6006 53.9701 23.944C54.3139 25.3175 54.8297 26.2904 55.5747 27.0343C55.8613 27.3205 56.2051 27.6066 56.4917 27.8928C56.9502 28.3506 57.4659 28.7512 57.9244 29.2663C58.3829 29.7241 58.7267 30.2964 59.1279 30.8114V30.8687C59.2998 31.0976 59.4145 31.2693 59.5864 31.4982C59.5864 31.4982 59.5864 31.4982 59.5864 31.5554C59.8729 30.697 60.0449 30.0102 59.9876 29.3235C59.9302 27.6066 59.0133 26.5193 58.1537 25.6609Z" fill="#C19F56"/>
<path d="M52.0228 41.8619V41.8047C51.6216 42.1481 51.3351 42.5487 51.0485 43.0637C50.4181 44.3228 50.1316 45.4101 50.2462 46.5547C50.3035 47.5848 50.3608 48.6721 50.3035 49.7595C50.3035 50.2745 50.1889 50.7896 50.0743 51.2474C50.017 51.4191 50.017 51.648 49.9597 51.8197C49.9597 51.8769 49.9597 51.9342 49.9023 51.9914C51.507 51.3619 52.7105 49.8739 52.8824 48.386C53.0544 46.8408 52.9397 45.4101 52.5959 44.0366C52.424 43.2354 52.252 42.4914 52.0228 41.8619Z" fill="#C19F56"/>
<path d="M47.4395 47.8104C46.9237 48.6689 46.7518 49.5845 46.5798 50.5574C46.5225 50.7863 46.5225 51.0152 46.4652 51.2441C46.236 52.3315 45.9494 53.3616 45.6629 54.3917L45.6056 54.6779C45.5483 54.964 45.4336 55.1929 45.2617 55.4791C45.491 55.4218 45.6629 55.4218 45.8348 55.3646C47.4968 54.7351 48.5283 53.705 48.9868 52.217C49.6172 50.0996 49.5599 47.9249 49.3307 45.9219C48.4137 46.3797 47.8406 47.1809 47.4395 47.8104Z" fill="#C19F56"/>
<path d="M48.4709 10.5469C47.5539 10.5469 46.637 10.6041 45.7773 10.6613C46.1785 11.348 46.7516 11.9202 47.6112 12.4352C48.6428 13.1219 49.8463 13.2935 51.1071 13.4652L51.3937 13.5224C51.9668 13.5797 52.5398 13.6941 53.1129 13.8658C53.5714 13.9802 54.0299 14.2091 54.4884 14.3808C54.6603 14.438 54.8895 14.5524 55.0615 14.6097C55.1761 14.6669 55.2907 14.7241 55.4626 14.7813C55.2334 13.923 55.0041 13.2935 54.603 12.7213C53.686 11.4052 52.3106 11.0047 51.1071 10.7758C50.2475 10.6041 49.4451 10.5469 48.4709 10.5469Z" fill="#C19F56"/>
<path d="M53.9139 37.2812C53.4555 37.9108 53.1689 38.5403 53.0543 39.1698C52.8251 40.4288 52.8251 41.5162 53.1689 42.5463C53.2835 42.9469 53.3408 43.4047 53.4555 43.8053C53.5128 44.1487 53.5701 44.4348 53.6274 44.7782C53.8566 45.7511 53.9139 46.7812 53.8566 47.6969C54.487 47.2391 55.0028 46.7812 55.3467 46.1517C55.9771 45.1216 56.2063 44.0342 55.9771 42.6607C55.6905 41.2873 54.7163 38.5975 53.9139 37.2812Z" fill="#C19F56"/>
<path d="M38.61 4.48104C39.1831 4.19493 39.8135 3.96604 40.4439 3.73715C40.9597 3.56549 41.4755 3.45104 41.9339 3.3366C42.1632 3.27937 42.3351 3.27937 42.5643 3.22215H42.6217C41.6474 2.3066 40.5585 1.7916 39.2404 1.73438C38.8392 1.73438 38.3808 1.84882 37.9796 1.96326H37.9223C36.203 2.42104 34.713 3.45104 33.5095 4.30937C33.1656 4.53826 32.8791 4.82437 32.5352 5.05326L32.3633 5.16771H32.4206C32.7071 5.28215 32.8791 5.33937 33.1083 5.3966C33.9679 5.62548 34.8849 5.68271 35.8592 5.45382C36.3176 5.33937 36.7761 5.22493 37.2919 4.99604C37.6931 4.82437 38.1515 4.65271 38.5527 4.48104H38.61Z" fill="#C19F56"/>
<path d="M56.8948 35.3224C56.4363 34.6356 55.9206 33.9489 55.4621 33.3194C55.2902 33.0905 55.1182 32.8615 54.9463 32.6326C54.889 32.5754 54.889 32.5182 54.8317 32.4609C54.4305 33.3194 54.3159 34.1778 54.3732 35.3224C54.4305 36.2953 54.8317 37.2109 55.2329 38.0694L55.2902 38.1838C55.634 38.985 56.0352 39.7862 56.3217 40.5874C56.4937 41.1597 56.6083 41.732 56.7229 42.3043C56.7229 42.4187 56.7802 42.5904 56.7802 42.7049C57.8118 41.7892 58.4995 39.8434 58.2129 38.6416C57.9264 37.2682 57.5252 36.1808 56.8948 35.3224Z" fill="#C19F56"/>
<path d="M17.1207 8.08645C17.3499 7.80034 17.4646 7.39979 17.5792 6.99923C17.6365 6.82757 17.6938 6.71312 17.6938 6.54146C18.2096 4.99646 18.84 3.39424 19.9289 2.07812C19.6996 2.07812 19.4704 2.13535 19.2985 2.13535C17.4646 2.36424 16.1465 3.33701 15.3441 5.16812C14.771 6.36979 14.4272 7.80034 14.2552 9.34534C14.1979 9.68868 14.1406 10.0892 14.1406 10.4326V10.6042C14.4845 10.4898 15.0003 10.2609 15.2295 10.0892C15.9745 9.40257 16.6049 8.77312 17.1207 8.08645Z" fill="#C19F56"/>
<path d="M12.1932 12.6683C12.8236 11.6954 13.2247 10.608 13.3967 9.40624C13.454 9.00564 13.5113 8.60504 13.6259 8.20443C13.6832 7.86106 13.7978 7.46046 13.8551 7.11709C13.9698 6.37311 14.2563 5.7436 14.4855 5.11408C14.5429 4.94239 14.6002 4.77071 14.7148 4.65625C13.8551 4.88517 13.2247 5.11408 12.6516 5.51468C11.3335 6.43034 10.9324 7.80383 10.7031 9.06287C10.3593 10.7797 10.4739 12.5538 10.6458 14.2135C11.2189 13.7556 11.7347 13.2978 12.1932 12.6683Z" fill="#C19F56"/>
<path d="M6.2891 45.059C7.43529 45.4595 8.69609 45.6312 9.89959 45.7457H10.0142C10.1861 45.7457 10.4154 45.8029 10.5873 45.8029C10.53 45.574 10.4154 45.4023 10.3008 45.2307C9.55573 43.9145 8.46686 42.999 7.09143 42.484C6.8622 42.3695 6.63296 42.3123 6.40372 42.1979C5.94525 42.0262 5.37215 41.7973 4.85637 41.6257C3.88211 41.2823 2.96516 40.7673 1.93359 40.0234C1.9909 41.7401 2.564 42.999 3.76749 43.9145C4.4552 44.4295 5.25754 44.7157 6.00256 45.0018L6.2891 45.059Z" fill="#C19F56"/>
<path d="M38.9524 5.23017C38.322 5.51628 37.7489 5.80239 37.1758 6.08851C37.8062 6.54628 38.4366 6.83239 39.1816 7.00406C39.6401 7.06128 40.0412 7.11851 40.4997 7.11851C41.3594 7.11851 42.2763 6.94684 43.3079 6.66073C44.7979 6.20295 46.116 6.08851 47.3195 6.14573C47.3768 6.14573 47.4341 6.14573 47.4915 6.14573C46.9757 5.45906 46.4026 4.88684 45.7149 4.48628C45.0845 4.08573 44.3394 3.91406 43.5371 3.91406C43.1359 3.91406 42.7348 3.97129 42.2763 4.02851C41.1874 4.31462 40.0412 4.71517 38.9524 5.23017Z" fill="#C19F56"/>
<path d="M5.0862 36.7609C5.37275 36.9326 5.60199 37.047 5.88853 37.2187L6.00315 37.2759C6.06046 36.9326 6.06046 36.4176 6.00315 36.0742C5.77392 35.0442 5.31544 34.1287 4.62773 33.3276C4.11194 32.7553 3.59616 32.2976 3.02307 31.7826C2.90845 31.6681 2.79383 31.5537 2.67921 31.4392C1.70495 30.5237 0.959931 29.6081 0.386838 28.5781C-0.300874 30.1803 -0.0716363 32.1831 1.07455 33.4992C2.04881 34.7581 3.36692 35.7881 5.0862 36.7609Z" fill="#C19F56"/>
<path d="M51.1607 14.3773C50.7023 14.3201 50.1865 14.2629 49.6707 14.2057L49.2695 14.1484C49.2695 14.2057 49.2695 14.2057 49.3268 14.2629C49.728 15.2929 50.473 16.0368 51.218 16.6662C51.9058 17.2384 52.7654 17.5245 53.5677 17.8107C53.7397 17.8679 53.8543 17.9251 54.0262 17.9823C55.1724 18.3829 56.6051 18.9551 57.9232 19.9851C57.8086 17.9823 57.0636 16.6662 55.5736 15.8079C54.3128 15.064 52.9373 14.6634 51.1607 14.3773Z" fill="#C19F56"/>
<path d="M6.00288 22.7387C6.46135 22.1664 6.7479 21.5369 6.86252 20.9074C7.09176 19.7628 7.09176 18.7899 6.91983 17.9315C6.86252 17.6453 6.80521 17.4164 6.69059 17.1875C6.57597 16.8441 6.51866 16.5007 6.40404 16.1001C6.17481 14.9556 5.94557 13.6965 6.06019 12.4375C5.42979 12.8381 4.97131 13.3532 4.57015 13.9254C3.82513 15.0128 3.6532 16.2718 4.05436 17.9887C4.45553 19.7628 5.25786 21.3652 6.00288 22.7387Z" fill="#C19F56"/>
<path d="M42.45 52.7849C42.278 53.1282 42.1634 53.5288 42.0488 53.8721C41.8769 54.4443 41.6476 54.9593 41.4184 55.5316C41.1318 56.1038 40.788 56.676 40.4441 57.191C40.3295 57.4199 40.1576 57.6488 40.043 57.8777C40.3295 57.8777 40.788 57.8777 41.0745 57.8204C42.6219 57.4771 43.7108 56.676 44.3985 55.3027C45.2581 53.586 45.5447 51.6977 45.7739 50.0954C45.8312 49.8666 45.8312 49.6377 45.8312 49.4088V49.3516C44.2265 49.9238 43.1377 51.1255 42.45 52.7849Z" fill="#C19F56"/>
<path d="M20.849 53.0779C20.3332 52.9635 19.8175 52.9062 19.3017 52.9062C18.5566 52.9062 17.7543 53.0207 16.8947 53.2496C15.4619 53.6501 14.1438 53.8218 12.883 53.8218C12.7111 53.8218 12.4819 53.8218 12.3099 53.8218C12.2526 53.8218 12.2526 53.8218 12.1953 53.8218C12.4819 54.2796 12.8257 54.6229 13.2269 54.9662C14.3731 55.8818 15.6339 56.1679 17.1812 55.939C19.1871 55.5957 21.0209 54.7374 22.5683 53.9363C22.1098 53.4785 21.5367 53.2496 20.849 53.0779Z" fill="#C19F56"/>
<path d="M37.0625 53.9244C36.6614 53.9244 36.3175 53.9816 35.9737 54.0389C35.114 54.2105 34.3117 54.5539 33.5667 55.1261C33.2228 55.4122 32.8789 55.7555 32.5924 56.0416C32.4778 56.2133 32.3059 56.3277 32.1912 56.4994C32.0193 56.6711 31.8474 56.8427 31.6755 57.0144C31.2743 57.415 30.9304 57.8155 30.472 58.2161C30.0708 58.5594 29.6123 58.9027 29.1538 59.1888C28.9819 59.3033 28.7527 59.475 28.5807 59.5894C28.5807 59.5894 28.5807 59.5894 28.5234 59.5894C29.3831 59.8755 30.0708 60.0472 30.7585 59.99C32.3059 59.9327 33.3947 59.0744 34.5982 57.8155C35.6871 56.6138 36.4894 55.2405 37.2345 53.8672C37.1771 53.8672 37.1198 53.8672 37.0625 53.9244Z" fill="#C19F56"/>
<path d="M23.594 6.08558C24.2817 6.02836 24.9121 5.79947 25.7145 5.28447C26.1729 4.99836 26.5741 4.71225 26.8606 4.42614C27.2618 4.02558 27.7203 3.5678 28.1215 3.16725C28.6372 2.65225 29.153 2.08003 29.7261 1.56503C30.07 1.22169 30.4711 0.992805 30.815 0.763916C30.9869 0.649472 31.1588 0.535027 31.3308 0.420583C31.3308 0.420583 31.3308 0.420583 31.3881 0.420583C30.4138 0.0200275 29.4969 -0.0944165 28.5226 0.07725C27.4337 0.248917 26.5741 0.935582 25.9437 1.5078C24.511 2.82391 23.594 4.42614 22.7344 5.97114C22.9636 6.02836 23.3648 6.08558 23.594 6.08558Z" fill="#C19F56"/>
<path d="M55.2315 27.8902C55.1169 27.7758 54.945 27.6613 54.8303 27.5469V27.6041C54.773 27.8902 54.7157 28.1764 54.7157 28.4625C54.6584 30.0077 55.1169 31.4384 56.0911 32.6402C56.7788 33.4987 57.3519 34.4143 57.925 35.2728C58.1543 35.6734 58.3262 36.074 58.4981 36.5318C58.5554 36.7035 58.6127 36.8752 58.7274 37.0469C58.7274 37.1041 58.7847 37.1613 58.7847 37.2185C59.1858 36.589 59.4724 35.9595 59.587 35.2728C59.8162 34.071 59.5297 32.9264 58.6701 31.5529C57.7531 30.1794 56.6069 29.0921 55.2315 27.8902Z" fill="#C19F56"/>
<path d="M32.4222 54.906C32.0784 54.8488 31.448 54.7344 30.9895 54.7344C30.9322 54.7344 30.8176 54.7344 30.7603 54.7344C29.4421 54.906 28.3533 55.3066 27.4936 55.9933C26.8059 56.5655 26.2328 56.966 25.6024 57.3094C24.8574 57.7099 24.1124 58.1105 23.4247 58.511C23.1954 58.6255 23.0235 58.7399 22.8516 58.8544C23.4247 59.1977 24.0551 59.4838 24.7428 59.5983C25.9463 59.8272 27.0925 59.541 28.4679 58.6827C29.9579 57.7099 31.1041 56.3938 32.1357 55.2494L32.4222 54.906Z" fill="#C19F56"/>
<path d="M4.34072 31.8937C4.56996 32.0654 4.74189 32.2371 4.97113 32.4088L5.02844 32.466C5.20036 31.722 5.25767 31.0353 5.08575 30.2913C4.85651 29.1467 4.39803 28.1738 3.71032 27.3154C3.13723 26.5714 2.56414 25.713 1.99104 24.8546C1.76181 24.454 1.53257 23.9389 1.36064 23.5383C1.30333 23.3666 1.18871 23.1949 1.1314 22.966C1.1314 22.9088 1.07409 22.9088 1.07409 22.8516C0.0998352 24.2823 -0.0720932 26.2853 0.672928 27.6588C1.53257 29.0895 2.67875 30.4058 4.34072 31.8937Z" fill="#C19F56"/>
<path d="M27.4961 5.11663C28.2411 5.2883 28.9288 5.34552 29.6739 5.17385C30.8773 4.94496 31.7943 4.48718 32.6539 3.85774C33.399 3.28552 34.2013 2.7133 35.1755 2.14108C35.5767 1.91219 36.0352 1.74052 36.4364 1.56885C36.6083 1.51163 36.7802 1.45441 36.9521 1.33996C37.0094 1.28274 37.1241 1.28274 37.1814 1.22552C36.4363 0.71052 35.4048 0.367188 34.3732 0.367188C33.6855 0.367188 33.0551 0.481632 32.5966 0.767743C31.1639 1.51163 29.8458 2.54163 28.413 4.14385C28.1838 4.42996 27.9546 4.71607 27.668 5.00218L27.4961 5.11663Z" fill="#C19F56"/>
<path d="M52.7111 18.4476L52.0234 18.2188C52.0234 18.276 52.0234 18.276 52.0234 18.3332C52.31 19.821 53.1696 21.0799 54.545 22.0526C55.0035 22.396 55.5193 22.6821 56.0351 23.0254C56.207 23.1399 56.3216 23.1971 56.4936 23.3115C57.6398 23.9982 58.4994 24.7421 59.2444 25.6004L59.3017 25.6576C59.359 25.5432 59.359 25.4287 59.359 25.3715C59.5883 23.426 59.0152 21.881 57.5251 20.7937C56.2643 19.821 54.7743 19.1343 52.7111 18.4476Z" fill="#C19F56"/>
<path d="M7.26132 41.5719C7.43325 41.6291 7.66249 41.6863 7.89173 41.7436H7.94903C7.89172 41.2858 7.77711 40.828 7.54787 40.3702C6.91747 39.1686 6.11514 38.253 5.08357 37.6808C4.16662 37.1658 3.30698 36.6508 2.50465 36.0214C2.04617 35.678 1.64501 35.2775 1.24384 34.8769C1.07191 34.7052 0.899987 34.5336 0.728059 34.4191C0.67075 34.3619 0.670749 34.3619 0.61344 34.3047C0.498821 34.9914 0.441512 35.8497 0.728059 36.7652C1.01461 37.738 1.5877 38.5391 2.39003 39.1114C3.59353 40.1414 5.14088 40.8852 7.26132 41.5719Z" fill="#C19F56"/>
<path d="M25.6038 0.700381C25.2027 0.643159 24.8588 0.585938 24.515 0.585938C24.2284 0.585938 23.9419 0.585937 23.7126 0.643159C22.4518 0.872048 21.5349 1.44427 20.7325 2.47427C19.4717 4.19093 18.784 6.07927 18.2109 7.79593C18.6121 7.79593 19.2425 7.73871 19.5291 7.56704C20.7325 6.9376 21.6495 6.13649 22.2226 5.16371C22.3945 4.82038 22.6238 4.53427 22.7957 4.19093C22.9676 3.90482 23.1395 3.61871 23.3115 3.38982C23.8846 2.35982 24.6296 1.50149 25.6038 0.700381Z" fill="#C19F56"/>
<path d="M37.3512 55.4152C36.5489 56.7885 35.6892 58.1618 34.3711 59.3063C34.7723 59.3635 35.1161 59.4207 35.46 59.4207C35.9758 59.4207 36.4915 59.3635 36.95 59.1918C37.9243 58.8485 38.7266 58.2191 39.4716 57.1891C40.5032 55.7013 41.1336 54.0418 41.5921 52.6685C41.6494 52.4968 41.7067 52.268 41.764 52.0391C41.0763 52.1535 40.4459 52.3824 39.8155 52.7257C38.8412 53.3552 38.0389 54.2135 37.3512 55.4152Z" fill="#C19F56"/>
<path d="M15.3527 25.8041L25.7563 39.4929C26.5616 40.5524 28.1578 40.5446 28.9527 39.4773L43.1289 20.4415" stroke="#C19F56" stroke-width="6" stroke-linecap="round"/>
</svg>
