<svg width="180" height="180" viewBox="0 0 180 180" fill="none" xmlns="http://www.w3.org/2000/svg">
<path d="M129.247 22.5453C128.732 22.717 128.388 22.717 127.872 22.8887C127.184 23.0603 126.325 23.4037 125.465 23.747L125.121 23.9187L125.465 24.262C126.153 24.9487 126.84 25.6353 127.528 25.9787C131.311 28.382 135.093 29.5837 139.219 29.2404C141.11 29.0687 143.174 29.0687 145.237 29.0687C146.956 29.0687 148.847 29.0687 150.738 29.2404C151.942 29.2404 153.145 29.5837 154.349 29.927C154.865 30.0987 155.38 30.0987 155.896 30.2704C155.896 30.2704 155.896 30.2704 156.068 30.2704C154.521 25.807 149.879 22.0303 145.752 21.5153C142.83 21.172 139.735 21.172 135.437 21.5153C133.202 21.5153 131.139 22.0303 129.247 22.5453Z" fill="white" fill-opacity="0.6"/>
<path d="M34.1744 148.375C36.9252 148.375 39.6761 148.203 42.255 147.86C41.0515 145.8 39.3322 144.255 36.9252 142.538C33.8305 140.478 30.22 139.963 26.4376 139.276H26.0938C23.8587 138.933 21.2798 138.59 18.8728 137.731C17.4974 137.388 16.1219 136.701 14.9184 136.015C14.4027 135.671 13.8869 135.5 13.3711 135.328C14.2307 138.246 15.6062 141.508 18.357 143.912C20.764 146.143 23.8587 146.83 26.9534 147.517C29.0166 148.203 31.4235 148.375 34.1744 148.375Z" fill="white" fill-opacity="0.6"/>
<path d="M53.767 156.461C54.1109 156.461 54.2828 156.289 54.6266 156.289C54.1109 155.774 53.767 155.259 53.2512 154.916C49.2969 151.826 45.1706 150.624 40.3566 150.796C36.918 150.967 33.1356 150.967 29.3532 150.796C28.1497 150.796 26.7743 150.452 25.5708 150.109C25.055 149.937 24.5392 149.937 24.0234 149.766C25.7427 154.401 30.2128 158.177 35.0268 158.692C40.3566 159.207 45.3425 158.864 50.1565 157.319C51.1881 156.976 52.3916 156.632 53.767 156.461Z" fill="white" fill-opacity="0.6"/>
<path d="M82.4861 164.521C81.6264 164.177 80.7668 163.662 80.0791 163.662C77.3282 163.147 74.5774 162.976 71.8265 163.491C70.795 163.662 69.7634 164.177 68.7318 164.521C68.388 164.692 68.216 164.692 67.8722 164.864C66.8406 165.379 65.6371 165.894 64.6055 166.237C62.5424 167.096 60.4793 168.126 58.4161 168.812C56.8688 169.327 55.3214 169.671 53.7741 170.014C53.0864 170.186 52.3987 170.186 51.8829 170.357C51.8829 170.357 51.8829 170.357 51.7109 170.357C53.6021 172.074 55.4934 173.276 57.7284 174.134C60.4793 175.164 63.2301 175.164 66.1529 174.134C70.1072 172.761 73.8897 170.872 77.3282 168.297C78.5317 167.439 79.7352 166.409 81.1106 165.551L82.4861 164.521Z" fill="white" fill-opacity="0.6"/>
<path d="M23.338 53.7925L23.6818 54.8225C24.8853 53.7925 25.9169 52.4191 26.7765 50.8741C28.4958 47.2691 29.3554 44.0074 29.1835 40.5741C29.0116 36.6257 29.0116 32.849 29.1835 29.759C29.1835 28.5573 29.5274 27.3556 29.6993 26.154C29.8712 25.639 29.8712 25.124 30.0432 24.7806C30.0432 24.609 30.0432 24.4373 30.2151 24.2656C24.1976 27.0123 21.2748 31.4757 21.1029 37.6557C20.931 41.9474 21.4467 45.8958 22.4783 49.6724C22.6502 50.8741 22.9941 52.2475 23.338 53.7925Z" fill="white" fill-opacity="0.6"/>
<path d="M12.3376 79.03C13.0253 80.06 13.885 81.09 14.7446 82.12L15.2604 82.8067C16.292 80.9183 16.6358 79.2016 16.6358 77.6566C16.9797 74.2233 16.292 70.7899 14.7446 67.6999C13.1973 64.4382 11.8218 61.3482 10.7903 58.4298C10.2745 57.0565 9.93062 55.5115 9.75869 54.1381C9.58677 53.4515 9.58677 52.9365 9.41484 52.2498C9.41484 52.2498 9.41484 52.2498 9.41484 52.0781C7.3517 54.1381 5.97628 56.7132 5.11664 59.8032C4.42892 62.5499 5.11664 65.1249 5.97628 67.6999C7.3517 72.1632 10.1025 76.1116 12.3376 79.03Z" fill="white" fill-opacity="0.6"/>
<path d="M174.465 76.966C170.854 73.361 166.556 70.786 161.742 68.2109C161.742 68.3826 161.742 68.5543 161.742 68.7259C161.742 69.7559 161.57 70.786 161.914 71.816C162.946 75.936 164.493 78.8543 166.728 81.086C167.588 81.9444 168.619 82.8027 169.479 83.661C170.854 85.0344 172.402 86.2361 173.777 87.7811C175.153 89.1544 176.184 90.8711 177.388 92.4161V92.5877C177.903 93.2744 178.247 93.7894 178.763 94.4761C178.763 94.4761 178.763 94.4761 178.763 94.6478C179.623 92.0728 180.139 90.0127 179.967 87.9527C179.795 82.8027 177.044 79.541 174.465 76.966Z" fill="white" fill-opacity="0.6"/>
<path d="M156.068 125.562V125.391C154.865 126.421 154.005 127.622 153.146 129.167C151.254 132.944 150.395 136.206 150.739 139.639C150.911 142.729 151.082 145.991 150.911 149.252C150.911 150.797 150.567 152.342 150.223 153.716C150.051 154.231 150.051 154.917 149.879 155.432C149.879 155.604 149.879 155.776 149.707 155.947C154.521 154.059 158.132 149.596 158.647 145.132C159.163 140.497 158.819 136.206 157.788 132.086C157.272 129.682 156.756 127.451 156.068 125.562Z" fill="white" fill-opacity="0.6"/>
<path d="M142.315 143.399C140.767 145.974 140.251 148.721 139.736 151.639C139.564 152.326 139.564 153.013 139.392 153.699C138.704 156.961 137.844 160.051 136.985 163.141L136.813 164C136.641 164.858 136.297 165.545 135.781 166.403C136.469 166.231 136.985 166.231 137.501 166.06C142.486 164.171 145.581 161.081 146.957 156.618C148.848 150.266 148.676 143.743 147.988 137.734C145.237 139.108 143.518 141.511 142.315 143.399Z" fill="white" fill-opacity="0.6"/>
<path d="M145.409 31.6484C142.658 31.6484 139.907 31.8201 137.328 31.9918C138.532 34.0518 140.251 35.7685 142.83 37.3135C145.925 39.3735 149.535 39.8885 153.317 40.4035L154.177 40.5752C155.896 40.7468 157.616 41.0902 159.335 41.6052C160.71 41.9485 162.086 42.6352 163.461 43.1502C163.977 43.3218 164.665 43.6652 165.18 43.8369C165.524 44.0085 165.868 44.1802 166.384 44.3519C165.696 41.7768 165.009 39.8885 163.805 38.1718C161.054 34.2235 156.928 33.0218 153.317 32.3351C150.739 31.8201 148.332 31.6484 145.409 31.6484Z" fill="white" fill-opacity="0.6"/>
<path d="M161.746 111.82C160.37 113.709 159.511 115.597 159.167 117.485C158.479 121.262 158.479 124.524 159.511 127.614C159.855 128.815 160.026 130.189 160.37 131.39C160.542 132.42 160.714 133.279 160.886 134.309C161.574 137.227 161.746 140.317 161.574 143.064C163.465 141.69 165.012 140.317 166.044 138.429C167.935 135.339 168.623 132.077 167.935 127.957C167.075 123.837 164.153 115.769 161.746 111.82Z" fill="white" fill-opacity="0.6"/>
<path d="M115.838 13.4432C117.557 12.5848 119.448 11.8982 121.34 11.2115C122.887 10.6965 124.434 10.3532 125.81 10.0098C126.497 9.83815 127.013 9.83815 127.701 9.66648H127.873C124.95 6.9198 121.683 5.37479 117.729 5.20312C116.526 5.20312 115.15 5.54646 113.947 5.8898H113.775C108.617 7.26314 104.147 10.3532 100.536 12.9282C99.5047 13.6148 98.645 14.4732 97.6134 15.1599L97.0977 15.5032H97.2696C98.1292 15.8465 98.645 16.0182 99.3327 16.1899C101.912 16.8765 104.663 17.0482 107.585 16.3615C108.961 16.0182 110.336 15.6749 111.883 14.9882C113.087 14.4732 114.462 13.9582 115.666 13.4432H115.838Z" fill="white" fill-opacity="0.6"/>
<path d="M170.684 105.966C169.309 103.906 167.762 101.846 166.386 99.9578C165.87 99.2712 165.355 98.5845 164.839 97.8978C164.667 97.7261 164.667 97.5545 164.495 97.3828C163.292 99.9578 162.948 102.533 163.12 105.966C163.292 108.885 164.495 111.631 165.699 114.206L165.87 114.55C166.902 116.953 168.106 119.356 168.965 121.76C169.481 123.476 169.825 125.193 170.169 126.91C170.169 127.253 170.341 127.768 170.341 128.111C173.435 125.365 175.498 119.528 174.639 115.923C173.779 111.803 172.576 108.541 170.684 105.966Z" fill="white" fill-opacity="0.6"/>
<path d="M51.366 24.2673C52.0538 23.409 52.3976 22.2073 52.7415 21.0056C52.9134 20.4906 53.0853 20.1473 53.0853 19.6323C54.6327 14.9972 56.5239 10.1905 59.7905 6.24219C59.1028 6.24219 58.4151 6.41386 57.8993 6.41386C52.3976 7.10053 48.4433 10.0189 46.0363 15.5122C44.317 19.1173 43.2854 23.409 42.7696 28.044C42.5977 29.074 42.4258 30.2757 42.4258 31.3057V31.8207C43.4574 31.4773 45.0047 30.7907 45.6924 30.2757C47.9275 28.2157 49.8187 26.3273 51.366 24.2673Z" fill="white" fill-opacity="0.6"/>
<path d="M36.5795 37.9866C38.4707 35.0683 39.6742 31.8066 40.19 28.2015C40.3619 26.9999 40.5339 25.7982 40.8777 24.5965C41.0497 23.5665 41.3935 22.3648 41.5654 21.3348C41.9093 19.1032 42.7689 17.2148 43.4566 15.3265C43.6286 14.8115 43.8005 14.2965 44.1444 13.9531C41.5654 14.6398 39.6742 15.3265 37.9549 16.5281C34.0006 19.2748 32.7971 23.3949 32.1094 27.1715C31.0778 32.3216 31.4217 37.6433 31.9375 42.6216C33.6567 41.2483 35.2041 39.875 36.5795 37.9866Z" fill="white" fill-opacity="0.6"/>
<path d="M18.8673 135.154C22.3059 136.355 26.0883 136.87 29.6988 137.214H30.0426C30.5584 137.214 31.2461 137.385 31.7619 137.385C31.59 136.699 31.2461 136.184 30.9023 135.669C28.6672 131.72 25.4006 128.974 21.2743 127.429C20.5866 127.085 19.8989 126.914 19.2112 126.57C17.8358 126.055 16.1165 125.369 14.5691 124.854C11.6463 123.824 8.89549 122.279 5.80078 120.047C5.97271 125.197 7.69199 128.974 11.3025 131.72C13.3656 133.265 15.7726 134.124 18.0077 134.982L18.8673 135.154Z" fill="white" fill-opacity="0.6"/>
<path d="M116.865 15.6671C114.974 16.5254 113.254 17.3838 111.535 18.2421C113.426 19.6155 115.318 20.4738 117.553 20.9888C118.928 21.1605 120.132 21.3321 121.507 21.3321C124.086 21.3321 126.837 20.8171 129.931 19.9588C134.402 18.5855 138.356 18.2421 141.966 18.4138C142.138 18.4138 142.31 18.4138 142.482 18.4138C140.935 16.3538 139.216 14.6371 137.152 13.4354C135.261 12.2338 133.026 11.7188 130.619 11.7188C129.416 11.7188 128.212 11.8904 126.837 12.0621C123.57 12.9204 120.132 14.1221 116.865 15.6671Z" fill="white" fill-opacity="0.6"/>
<path d="M15.2586 110.267C16.1183 110.782 16.806 111.126 17.6656 111.641L18.0095 111.812C18.1814 110.782 18.1814 109.237 18.0095 108.207C17.3218 105.117 15.9463 102.371 13.8832 99.9672C12.3358 98.2505 10.7885 96.8772 9.06921 95.3321C8.72535 94.9888 8.3815 94.6455 8.03764 94.3021C5.11486 91.5555 2.8798 88.8088 1.16051 85.7188C-0.902623 90.5254 -0.214909 96.5338 3.22365 100.482C6.14643 104.259 10.1008 107.349 15.2586 110.267Z" fill="white" fill-opacity="0.6"/>
<path d="M153.486 43.1554C152.111 42.9837 150.563 42.8121 149.016 42.6404L147.812 42.4688C147.812 42.6404 147.813 42.6404 147.984 42.8121C149.188 45.9021 151.423 48.1338 153.658 50.0221C155.721 51.7388 158.3 52.5971 160.707 53.4555C161.223 53.6272 161.567 53.7988 162.083 53.9705C165.521 55.1722 169.819 56.8888 173.774 59.9789C173.43 53.9705 171.195 50.0221 166.725 47.4471C162.942 45.2154 158.816 44.0138 153.486 43.1554Z" fill="white" fill-opacity="0.6"/>
<path d="M18.0086 68.2127C19.3841 66.496 20.2437 64.6077 20.5876 62.7193C21.2753 59.286 21.2753 56.3676 20.7595 53.7926C20.5876 52.9343 20.4156 52.2476 20.0718 51.5609C19.7279 50.5309 19.556 49.5009 19.2121 48.2992C18.5244 44.8659 17.8367 41.0892 18.1806 37.3125C16.2894 38.5142 14.9139 40.0592 13.7104 41.7759C11.4754 45.0375 10.9596 48.8142 12.1631 53.9643C13.3666 59.286 15.7736 64.0927 18.0086 68.2127Z" fill="white" fill-opacity="0.6"/>
<path d="M127.354 158.331C126.838 159.361 126.494 160.563 126.15 161.593C125.635 163.31 124.947 164.855 124.259 166.571C123.399 168.288 122.368 170.005 121.336 171.55C120.992 172.236 120.477 172.923 120.133 173.61C120.992 173.61 122.368 173.61 123.228 173.438C127.87 172.408 131.136 170.005 133.199 165.885C135.778 160.735 136.638 155.07 137.326 150.263C137.498 149.576 137.498 148.89 137.498 148.203V148.031C132.684 149.748 129.417 153.353 127.354 158.331Z" fill="white" fill-opacity="0.6"/>
<path d="M62.5432 159.187C60.9958 158.844 59.4485 158.672 57.9011 158.672C55.6661 158.672 53.2591 159.015 50.6801 159.702C46.3819 160.904 42.4276 161.419 38.6452 161.419C38.1294 161.419 37.4417 161.419 36.9259 161.419C36.754 161.419 36.754 161.419 36.582 161.419C37.4417 162.792 38.4732 163.822 39.6767 164.852C43.1153 167.599 46.8977 168.457 51.5398 167.77C57.5573 166.74 63.059 164.165 67.701 161.762C66.3256 160.389 64.6063 159.702 62.5432 159.187Z" fill="white" fill-opacity="0.6"/>
<path d="M111.192 161.773C109.988 161.773 108.956 161.945 107.925 162.117C105.346 162.632 102.939 163.662 100.704 165.378C99.6723 166.237 98.6408 167.267 97.7811 168.125C97.4373 168.64 96.9215 168.983 96.5776 169.498C96.0618 170.013 95.5461 170.528 95.0303 171.043C93.8268 172.245 92.7952 173.447 91.4198 174.648C90.2163 175.678 88.8409 176.708 87.4654 177.567C86.9496 177.91 86.2619 178.425 85.7461 178.768C85.7461 178.768 85.7461 178.768 85.5742 178.768C88.1531 179.627 90.2163 180.142 92.2794 179.97C96.9215 179.798 100.188 177.223 103.799 173.447C107.065 169.842 109.472 165.722 111.707 161.602C111.535 161.602 111.363 161.602 111.192 161.773Z" fill="white" fill-opacity="0.6"/>
<path d="M70.786 18.2569C72.8491 18.0852 74.7403 17.3985 77.1473 15.8535C78.5227 14.9952 79.7262 14.1368 80.5858 13.2785C81.7893 12.0768 83.1648 10.7035 84.3683 9.50181C85.9156 7.9568 87.463 6.24012 89.1823 4.69511C90.2138 3.66511 91.4173 2.97844 92.4489 2.29176C92.9647 1.94843 93.4805 1.60509 93.9962 1.26176C93.9962 1.26176 93.9962 1.26176 94.1682 1.26176C91.2454 0.0600829 88.4945 -0.283252 85.5718 0.231752C82.3051 0.746755 79.7262 2.80677 77.835 4.52344C73.5368 8.4718 70.786 13.2785 68.207 17.9135C68.8947 18.0852 70.0982 18.2569 70.786 18.2569Z" fill="white" fill-opacity="0.6"/>
<path d="M165.694 83.6628C165.351 83.3195 164.835 82.9761 164.491 82.6328V82.8045C164.319 83.6628 164.147 84.5212 164.147 85.3795C163.975 90.0145 165.351 94.3062 168.273 97.9112C170.337 100.486 172.056 103.233 173.775 105.808C174.463 107.01 174.979 108.211 175.494 109.585C175.666 110.1 175.838 110.615 176.182 111.13C176.182 111.301 176.354 111.473 176.354 111.645C177.558 109.756 178.417 107.868 178.761 105.808C179.449 102.203 178.589 98.7696 176.01 94.6496C173.259 90.5295 169.821 87.2678 165.694 83.6628Z" fill="white" fill-opacity="0.6"/>
<path d="M97.2667 164.695C96.2351 164.523 94.3439 164.18 92.9685 164.18C92.7966 164.18 92.4527 164.18 92.2808 164.18C88.3264 164.695 85.0598 165.896 82.4809 167.956C80.4177 169.673 78.6985 170.875 76.8072 171.905C74.5722 173.106 72.3371 174.308 70.274 175.51C69.5863 175.853 69.0705 176.196 68.5547 176.54C70.274 177.57 72.1652 178.428 74.2283 178.771C77.8388 179.458 81.2774 178.6 85.4036 176.025C89.8738 173.106 93.3123 169.158 96.4071 165.725L97.2667 164.695Z" fill="white" fill-opacity="0.6"/>
<path d="M13.03 95.6782C13.7177 96.1932 14.2335 96.7082 14.9212 97.2232L15.0931 97.3949C15.6089 95.1632 15.7808 93.1032 15.2651 90.8715C14.5774 87.4381 13.2019 84.5198 11.1388 81.9448C9.41951 79.7131 7.70023 77.1381 5.98095 74.5631C5.29323 73.3614 4.60552 71.8164 4.08974 70.6147C3.91781 70.0997 3.57395 69.5847 3.40202 68.898C3.40202 68.7264 3.2301 68.7264 3.2301 68.5547C0.307318 72.8464 -0.208468 78.8548 2.0266 82.9748C4.60552 87.2665 8.04408 91.2148 13.03 95.6782Z" fill="white" fill-opacity="0.6"/>
<path d="M82.4805 15.35C84.7155 15.865 86.7787 16.0367 89.0137 15.5217C92.6242 14.835 95.3751 13.4616 97.954 11.5733C100.189 9.85662 102.596 8.13994 105.519 6.42326C106.722 5.73659 108.098 5.22159 109.301 4.70658C109.817 4.53492 110.333 4.36325 110.849 4.01991C111.021 3.84825 111.364 3.84824 111.536 3.67658C109.301 2.13157 106.207 1.10156 103.112 1.10156C101.049 1.10156 99.1575 1.4449 97.7821 2.30324C93.4839 4.53492 89.5295 7.62494 85.2313 12.4316C84.5436 13.29 83.8559 14.1483 82.9963 15.0066L82.4805 15.35Z" fill="white" fill-opacity="0.6"/>
<path d="M158.13 55.3429L156.066 54.6562C156.066 54.8279 156.066 54.8279 156.066 54.9996C156.926 59.4629 159.505 63.2396 163.631 66.158C165.007 67.188 166.554 68.0463 168.101 69.0763C168.617 69.4197 168.961 69.5913 169.477 69.9347C172.915 71.9947 175.494 74.2264 177.729 76.8014L177.901 76.9731C178.073 76.6297 178.073 76.2864 178.073 76.1147C178.761 70.278 177.042 65.643 172.572 62.3813C168.789 59.4629 164.319 57.4029 158.13 55.3429Z" fill="white" fill-opacity="0.6"/>
<path d="M21.7918 124.692C22.3076 124.864 22.9953 125.036 23.683 125.207H23.8549C23.683 123.834 23.3392 122.461 22.6514 121.087C20.7602 117.482 18.3532 114.736 15.2585 113.019C12.5077 111.474 9.92876 109.929 7.52176 108.041C6.14634 107.011 4.94284 105.809 3.73934 104.607C3.22356 104.092 2.70777 103.577 2.19199 103.234C2.02006 103.062 2.02006 103.062 1.84813 102.891C1.50428 104.951 1.33235 107.526 2.19199 110.272C3.05163 113.191 4.77091 115.594 7.17791 117.311C10.7884 120.401 15.4305 122.632 21.7918 124.692Z" fill="white" fill-opacity="0.6"/>
<path d="M76.8115 2.12458C75.608 1.95292 74.5765 1.78125 73.5449 1.78125C72.6853 1.78125 71.8256 1.78125 71.1379 1.95292C67.3555 2.63959 64.6046 4.35626 62.1977 7.44628C58.4152 12.5963 56.3521 18.2613 54.6328 23.4114C55.8363 23.4114 57.7275 23.2397 58.5872 22.7247C62.1976 20.8364 64.9485 18.433 66.6678 15.5147C67.1836 14.4847 67.8713 13.6263 68.3871 12.5963C68.9028 11.738 69.4186 10.8796 69.9344 10.193C71.6537 7.10295 73.8888 4.52793 76.8115 2.12458Z" fill="white" fill-opacity="0.6"/>
<path d="M112.05 166.23C109.643 170.35 107.064 174.47 103.109 177.903C104.313 178.075 105.344 178.247 106.376 178.247C107.923 178.247 109.471 178.075 110.846 177.56C113.769 176.53 116.176 174.642 118.411 171.552C121.506 167.088 123.397 162.11 124.772 157.99C124.944 157.475 125.116 156.788 125.288 156.102C123.225 156.445 121.334 157.132 119.443 158.162C116.52 160.05 114.113 162.625 112.05 166.23Z" fill="white" fill-opacity="0.6"/>
<path d="M89.5361 150.267L89.88 150.095L90.2238 150.267C90.2238 150.267 90.2238 150.095 90.2238 149.752C94.1782 146.147 98.8203 143.915 103.806 141.512C104.666 141.169 105.697 140.654 106.557 140.139C115.153 135.847 121.515 130.697 126.329 124.002L129.595 126.405L131.143 113.187L118.764 118.337L122.031 120.912C117.388 126.577 112.403 131.727 105.182 133.444C104.322 133.615 103.462 133.787 102.431 133.787C96.5852 133.787 92.287 129.152 92.287 123.144C92.287 119.367 92.287 114.56 92.287 110.783C98.8203 110.783 104.838 110.783 105.697 110.783C106.385 110.783 107.245 110.44 107.761 109.925C108.104 109.41 109.48 106.148 109.48 106.148H70.1083C70.1083 106.148 71.4837 109.41 71.8275 109.925C72.1714 110.44 73.203 110.783 73.8907 110.783C74.7503 110.783 80.7678 110.783 87.3011 110.783C87.3011 114.56 87.3011 119.367 87.3011 123.144C87.3011 129.152 82.8309 133.787 77.1573 133.787C76.2977 133.787 75.438 133.615 74.4065 133.444C67.1855 131.727 62.1996 126.577 57.5575 120.912L60.8241 118.337L48.4453 113.187L49.9927 126.405L53.2593 124.002C58.0733 130.697 64.6066 136.019 73.031 140.139C73.8907 140.654 74.9222 140.997 75.7819 141.512C80.7678 143.915 85.5818 146.147 89.3642 149.752C89.5361 150.095 89.5361 150.267 89.5361 150.267Z" fill="white" fill-opacity="0.6"/>
<path d="M73.8879 53.6198C73.2002 53.6198 72.3405 53.9632 71.8248 54.4782C71.4809 54.9932 70.1055 58.2549 70.1055 58.2549H109.821C109.821 58.2549 108.445 54.9932 108.102 54.4782C107.758 53.9632 106.726 53.6198 106.038 53.6198C104.319 53.6198 97.614 53.6198 92.9719 53.6198V47.9548C96.5824 46.7531 99.3333 43.1481 99.3333 39.1997C99.3333 34.0497 95.207 29.9297 90.0491 29.9297C84.8913 29.9297 80.765 34.0497 80.765 39.1997C80.765 43.3198 83.3439 46.7531 87.1264 47.9548V53.6198C82.3124 53.6198 75.4352 53.6198 73.8879 53.6198ZM86.2667 39.0281C86.2667 36.9681 87.8141 35.4231 89.8772 35.4231C91.9403 35.4231 93.4877 36.9681 93.4877 39.0281C93.4877 41.0881 91.9403 42.6331 89.8772 42.6331C87.8141 42.6331 86.2667 41.0881 86.2667 39.0281Z" fill="white" fill-opacity="0.6"/>
<path d="M47.2383 65.3047V99.2949H66.4942V93.6299H53.0838V65.3047H47.2383Z" fill="white" fill-opacity="0.6"/>
<path d="M95.029 93.1058C93.9974 93.7925 92.45 94.1358 90.5588 94.1358C86.6045 94.1358 83.6817 92.4191 82.3063 88.9858L77.1484 91.9041C78.18 94.3075 79.7274 96.1958 81.9624 97.5692C84.1975 99.1142 87.1203 99.8009 90.3869 99.8009C93.9974 99.8009 96.9202 98.9425 99.3272 97.0542C101.562 95.1658 102.766 92.7625 102.766 89.6725C102.766 87.7841 102.422 86.2391 101.562 85.0374C101.046 84.0074 100.015 82.9774 98.4675 82.1191C97.9517 81.7757 97.264 81.4324 96.4044 81.0891C95.3728 80.5741 94.5132 80.4024 94.1693 80.2307L91.7623 79.3724C89.1834 78.5141 87.2922 77.8274 86.2606 77.1407C85.2291 76.2824 84.7133 75.2524 84.7133 74.0507C84.7133 72.849 85.2291 71.819 86.0887 71.1323C86.9483 70.4457 88.1518 70.1023 89.6992 70.1023C92.7939 70.1023 95.2009 71.4757 96.5763 74.394L101.562 71.4757C100.359 69.244 98.8114 67.5273 96.9202 66.3256C94.857 64.9523 92.45 64.2656 89.6992 64.2656C86.6045 64.2656 84.0256 65.124 81.7905 67.0123C79.5554 68.729 78.5239 71.1323 78.5239 74.2224C78.5239 77.3124 79.5554 79.5441 81.6186 81.0891C83.3378 82.2907 85.7449 83.3208 88.6676 84.3508C91.5904 85.2091 93.4816 85.8958 94.6851 86.5824C95.8886 87.2691 96.5763 88.4708 96.5763 89.8441C96.7482 91.3891 96.0605 92.4191 95.029 93.1058Z" fill="white" fill-opacity="0.6"/>
<path d="M138.191 89.6813C138.191 86.2479 136.816 83.8446 133.893 82.1279L133.205 81.7846L133.721 81.2696C135.784 79.5529 136.816 77.4929 136.816 74.5745C136.816 71.8279 135.784 69.5962 133.893 67.8795C132.002 66.1628 129.423 65.1328 126.672 65.1328H113.262V99.2947H127.704C130.626 99.2947 133.205 98.4364 135.097 96.548C137.332 94.8313 138.191 92.428 138.191 89.6813ZM119.279 70.7979H126.672C127.876 70.7979 128.907 71.1412 129.767 71.9995C130.626 72.8579 130.97 73.8879 130.97 75.0895C130.97 76.2912 130.626 77.3212 129.767 78.1796C128.907 79.0379 127.876 79.3812 126.672 79.3812H119.279V70.7979ZM131.142 92.428C130.283 93.2863 129.251 93.8013 127.876 93.8013H119.451V84.5313H127.876C129.251 84.5313 130.283 85.0463 131.142 85.9046C132.002 86.7629 132.518 87.793 132.518 89.1663C132.346 90.5396 131.83 91.5696 131.142 92.428Z" fill="white" fill-opacity="0.6"/>
</svg>
